<?xml version="1.0" encoding="UTF-8" standalone="no"?>
<!-- Created with Inkscape (http://www.inkscape.org/) -->

<svg
   xmlns:dc="http://purl.org/dc/elements/1.1/"
   xmlns:cc="http://creativecommons.org/ns#"
   xmlns:rdf="http://www.w3.org/1999/02/22-rdf-syntax-ns#"
   xmlns:svg="http://www.w3.org/2000/svg"
   xmlns="http://www.w3.org/2000/svg"
   xmlns:sodipodi="http://sodipodi.sourceforge.net/DTD/sodipodi-0.dtd"
   xmlns:inkscape="http://www.inkscape.org/namespaces/inkscape"
   version="1.1"
   id="svg112"
   width="172"
   height="74"
   viewBox="0 0 172 74"
   sodipodi:docname="TGR.svg"
   inkscape:version="0.92.3 (d244b95, 2018-08-02)">
  <metadata
     id="metadata118">
    <rdf:RDF>
      <cc:Work
         rdf:about="">
        <dc:format>image/svg+xml</dc:format>
        <dc:type
           rdf:resource="http://purl.org/dc/dcmitype/StillImage" />
        <dc:title></dc:title>
      </cc:Work>
    </rdf:RDF>
  </metadata>
  <defs
     id="defs116" />
  <sodipodi:namedview
     pagecolor="#ffffff"
     bordercolor="#666666"
     borderopacity="1"
     objecttolerance="10"
     gridtolerance="10"
     guidetolerance="10"
     inkscape:pageopacity="0"
     inkscape:pageshadow="2"
     inkscape:window-width="1341"
     inkscape:window-height="744"
     id="namedview114"
     showgrid="false"
     inkscape:zoom="1.2727273"
     inkscape:cx="190.74436"
     inkscape:cy="-13.386503"
     inkscape:window-x="25"
     inkscape:window-y="0"
     inkscape:window-maximized="1"
     inkscape:current-layer="svg112" />
  <path
     style="fill:#000000;stroke-width:1.00057423"
     d="m 3.7232017,72.202304 c -0.45347,-0.296806 -0.82451,-1.53278 -0.82451,-2.746589 0,-1.300406 -0.83473,-2.416581 -2.03217,-2.717334 -1.1177,-0.280718 -1.69908,-0.728412 -1.29198,-0.994868 1.113,-0.728475 13.2202703,-0.787535 13.2192403,-0.06451 -5e-4,0.344928 1.39047,0.973375 3.09103,1.396545 1.70057,0.423195 3.10885,1.233778 3.12955,1.801313 0.0218,0.600238 0.56493,0.439317 1.29823,-0.384708 0.69332,-0.779129 2.53156,-1.416605 4.08495,-1.416605 2.40332,0 2.82434,0.422357 2.82434,2.833197 0,2.410837 -0.42102,2.833207 -2.82434,2.833207 -1.55339,0 -3.39163,-0.637487 -4.08495,-1.416618 -1.18538,-1.332028 -1.26288,-1.328 -1.29823,0.0673 -0.0523,2.068485 -2.88325,1.241465 -3.89974,-1.139321 -0.80649,-1.888942 -1.32072,-1.628838 -1.58779,0.803187 -0.0693,0.631341 -0.81937,1.299161 -1.66678,1.484039 -1.03868,0.226634 -1.54072,-0.609015 -1.54072,-2.564486 0,-2.038704 -0.55128,-2.900654 -1.85516,-2.900654 -1.2956703,0 -1.8551603,0.854459 -1.8551603,2.83319 0,2.678736 -1.03746,3.5033 -2.88581,2.293545 z M 35.302162,71.770577 c -1.71755,-1.124151 -1.91594,-3.805264 -0.39761,-5.373085 1.357,-1.401232 8.99141,-1.663746 9.70652,-0.333761 0.359,0.66768 -0.753,1.011842 -3.26935,1.011842 -3.24308,0 -3.81339,0.302645 -3.81339,2.023705 0,1.259205 0.70084,2.023705 1.85516,2.023705 1.02035,0 1.85518,-0.364247 1.85518,-0.809468 0,-0.445218 -0.55656,-0.809492 -1.2368,-0.809492 -0.68019,0 -1.23675,-0.405609 -1.23675,-0.901356 0,-0.543954 1.49278,-0.757967 3.76476,-0.539705 2.07062,0.198901 4.05139,0.05819 4.40169,-0.312865 1.17215,-1.241317 5.27887,-0.692206 7.02482,0.939302 1.85309,1.731609 3.62348,1.395885 2.52439,-0.478731 -0.47978,-0.818345 0.36986,-1.135095 3.04484,-1.135095 3.77687,0 5.21173,1.132551 5.21173,4.113636 0,1.234936 -0.88604,1.552763 -4.3287,1.552763 -2.54226,0 -4.32871,-0.400907 -4.32871,-0.971395 0,-0.755516 -0.32981,-0.755516 -1.48412,0 -2.18706,1.431443 -6.86393,1.180909 -8.311,-0.445216 -1.2006,-1.349143 -1.26241,-1.349143 -1.29822,0 -0.0283,1.058002 -1.07082,1.416611 -4.11898,1.416611 -2.24474,0 -4.7492,-0.437141 -5.56546,-0.971395 z m 16.01621,-1.861805 c 0,-0.422959 -0.59829,-0.899542 -1.32954,-1.059071 -0.73124,-0.159543 -1.32953,0.317037 -1.32953,1.059071 0,0.742032 0.59829,1.218605 1.32953,1.059061 0.73125,-0.159518 1.32954,-0.636105 1.32954,-1.059061 z m 14.65576,0 c 0,-2.471626 0.38903,-2.833199 3.04841,-2.833199 4.33636,0 7.25669,4.632344 3.44465,5.464025 -0.97082,0.211785 -1.54597,-0.440728 -1.54597,-1.753892 0,-1.150137 -0.55655,-2.091166 -1.23678,-2.091166 -0.68023,0 -1.23676,0.910666 -1.23676,2.023706 0,1.113046 -0.55656,2.023726 -1.23677,2.023726 -0.68024,0 -1.23678,-1.274938 -1.23678,-2.8332 z m 15.33369,1.696024 c -0.36668,-0.625442 -0.48834,-2.355715 -0.27038,-3.845051 0.32216,-2.200978 0.97534,-2.752179 3.4894,-2.944542 1.70118,-0.130176 4.20564,0.302963 5.56548,0.962536 2.05212,0.995384 2.22468,1.465175 1.0151,2.763616 -1.06914,1.1477 -1.09112,1.804085 -0.0826,2.464259 2.27889,1.491562 -0.12316,2.101123 -2.56953,0.652075 -2.81153,-1.665344 -3.9297,-1.702332 -3.9297,-0.129962 0,1.534306 -2.3308,1.590144 -3.21792,0.07708 z m 6.59325,-4.208806 c -0.41097,-0.268977 -1.47767,-0.29774 -2.37048,-0.06397 -0.98662,0.258426 -0.69355,0.450238 0.74723,0.489078 1.30376,0.03516 2.03423,-0.156182 1.62325,-0.425165 z m 5.43043,3.908472 c -1.7689,-2.163323 0.64176,-4.364163 4.59684,-4.196739 9.454968,0.400183 13.806438,-0.04064 13.806438,-1.399014 0,-1.116369 0.50021,-1.015371 2.73009,0.551144 1.80911,1.270986 2.2263,2.027906 1.23673,2.243809 -1.47136,0.321003 -2.16161,2.619321 -0.78659,2.619321 1.519,0 3.79353,-2.091473 3.30924,-3.042775 -0.31746,-0.622965 0.67433,-1.004635 2.61026,-1.004635 3.46169,0 3.80619,0.237977 4.97429,3.436811 l 0.81176,2.222586 -6.92679,-0.104514 c -4.6699,-0.07061 -7.09459,-0.464929 -7.44282,-1.210736 -0.28398,-0.608411 -0.77333,-1.646471 -1.08784,-2.306779 -0.36361,-0.763998 -1.35288,-1.00435 -2.7202,-0.660932 -1.32686,0.333257 -1.58133,0.663431 -0.6652,0.863296 0.81589,0.177996 1.48346,1.021816 1.48346,1.875139 0,1.355607 -0.93139,1.551528 -7.37717,1.551528 -5.800848,0 -7.628208,-0.307156 -8.552498,-1.43751 z m 13.353158,-0.700083 c 0.28332,-0.159969 -0.57926,-0.290864 -1.91706,-0.290864 -1.33785,0 -2.98228,-0.359928 -3.65436,-0.79986 -0.80492,-0.526786 -1.28542,-0.249483 -1.40764,0.812354 -0.15594,1.355183 0.34441,1.529043 3.13915,1.090715 1.82842,-0.286817 3.55639,-0.652365 3.83991,-0.812345 z m 21.37551,1.166198 c -2.13393,-1.396562 -1.87313,-4.695004 0.37097,-4.695004 1.15432,0 1.85535,0.764526 1.85535,2.023705 0,1.113041 0.55634,2.023705 1.23661,2.023705 0.68021,0 1.23668,-0.910664 1.23668,-2.023705 0,-1.113038 0.55676,-2.023705 1.23696,-2.023705 0.68017,0 1.23682,1.274944 1.23682,2.833199 0,2.416722 -0.4183,2.8332 -2.84479,2.8332 -1.56454,0 -3.51228,-0.437141 -4.3286,-0.971395 z m 8.41003,-1.834182 v -2.805558 l 7.72991,0.17474 7.72977,0.174743 0.38751,2.630835 c 0.36179,2.455996 0.13333,2.630817 -3.43993,2.630817 -4.07351,0 -6.5552,-2.103116 -3.79813,-3.218456 1.09892,-0.44446 1.1513,-0.787562 0.18034,-1.180298 -0.7529,-0.304533 -1.36888,-0.125455 -1.36888,0.39797 0,0.524645 -1.0184,0.777345 -2.26963,0.563168 -1.8267,-0.312627 -2.16067,-0.01502 -1.71099,1.52457 0.40096,1.372944 -0.005,1.913046 -1.44064,1.913046 -1.4567,0 -1.99933,-0.76149 -1.99933,-2.805577 z m 17.31479,-0.079 c 0,-2.766662 0.16415,-2.874113 4.01957,-2.630821 3.56424,0.224931 4.06441,0.561509 4.41689,2.971192 0.28912,1.977146 -0.0458,2.61588 -1.23676,2.344474 -0.89884,-0.205178 -1.48029,-0.945274 -1.29222,-1.644633 0.18807,-0.699375 -0.22925,-1.502665 -0.92757,-1.785136 -0.74201,-0.300106 -1.26962,0.34739 -1.26962,1.557935 0,1.301642 -0.6895,2.071482 -1.85514,2.071482 -1.30185,0 -1.85515,-0.860173 -1.85515,-2.884493 z m 10.11096,0.253675 c -0.65252,-1.573529 -0.62572,-3.228834 0.0647,-4.118811 1.12352,-1.444341 1.22121,-1.444341 3.3336,0 1.63007,1.114725 1.85587,1.82684 0.89991,2.838839 -0.91539,0.969093 -0.81729,1.712613 0.34709,2.630821 1.3918,1.09764 1.25412,1.279969 -0.96664,1.279969 -1.87336,0 -2.89127,-0.727677 -3.68036,-2.630818 z M 41.989372,57.700304 c -1.19248,-2.033922 -0.87104,-6.00492 0.48606,-6.00492 0.68023,0 1.23678,0.501974 1.23678,1.115496 0,0.613509 1.21058,1.641578 2.69019,2.284602 1.7644,0.766769 2.41619,1.636469 1.89398,2.527191 -1.00801,1.719284 -5.31345,1.772286 -6.30701,0.07773 z m 16.04867,0.07977 c -2.66429,-0.621364 -6.28185,-2.070717 -8.03903,-3.220811 -2.64734,-1.732728 -3.19487,-2.841069 -3.19487,-6.467174 0,-4.208547 -0.0876,-4.324131 -2.29097,-3.019069 -1.26004,0.74634 -3.10986,2.393445 -4.11071,3.660215 -2.69694,3.413466 -3.15473,2.170737 -0.83901,-2.277546 1.16952,-2.246517 4.13816,-5.276556 7.01337,-7.15841 2.8776,-1.88344 3.97958,-3.008529 2.60639,-2.66109 -1.3085,0.331084 -3.90308,0.803283 -5.76575,1.049311 -5.78532,0.764199 -12.49651,-3.340698 -8.26217,-5.053529 0.73551,-0.297521 2.82255,0.364427 4.6379,1.470978 3.66688,2.235171 9.03431,2.40079 20.58767,0.635243 3.62042,-0.553265 9.27731,-0.721983 13.73375,-0.409611 8.87901,0.622353 12.5618,-0.340257 21.16936,-5.533266 6.107068,-3.684497 10.266858,-8.323752 10.266858,-11.450394 0,-1.877438 -0.31244,-1.990081 -4.01947,-1.448831 -2.21074,0.322775 -11.532918,0.568823 -20.715948,0.546787 -14.27599,-0.03422 -17.70853,-0.302145 -23.6778,-1.84766 -8.29632,-2.148016 -17.13574,-6.1592166 -17.13574,-7.7759376 0,-2.544232 29.04145,-4.935816 45.76064,-3.768431 l 9.27579,0.647673 -13.60452,0.134755 c -14.57453,0.14435 -29.29769,1.269186 -32.60027,2.490614 -1.67027,0.617754 -1.17509,0.985327 2.79835,2.077281 16.33212,4.4882446 46.13429,4.7523766 58.247818,0.516219 2.04059,-0.713619 4.54493,-1.395176 5.56532,-1.514547 1.02043,-0.119369 3.65682,-0.442512 5.85889,-0.718091 6.50258,-0.813783 10.16902,0.2128 12.21687,3.4205346 2.33905,3.664242 0.78354,7.108724 -4.80375,10.636658 -3.76071,2.374714 -15.93468,6.643746 -18.99517,6.661103 -0.767,0.0053 -1.96957,0.46325 -2.67247,1.019772 -0.99409,0.787234 0.325,1.042574 5.94257,1.150286 9.39222,0.180078 17.72107,2.595257 20.96715,6.079995 3.27242,3.513347 3.17977,4.155331 -1.05899,7.312245 -2.53737,1.889751 -5.83777,3.098361 -11.40887,4.17775 -10.00933,1.939338 -19.44085,1.46177 -36.965508,-1.871735 -15.53327,-2.954704 -23.05634,-3.172972 -27.66059,-0.802503 -5.77511,2.97323 -3.66374,8.877645 4.53803,12.690609 4.46643,2.076401 3.5791,2.240041 -3.36512,0.620549 z m -5.55802,-8.516365 c -0.82621,-3.951187 -1.03843,-4.198087 -1.89722,-2.207074 -0.59616,1.382179 -0.37514,3.176905 0.57641,4.680483 2.10798,3.330883 2.41449,2.7569 1.32081,-2.473409 z m 77.782528,-8.846977 c 0.65133,-1.486316 0.83513,-2.473932 0.40849,-2.19472 -0.42668,0.279204 -1.50409,0.111839 -2.39479,-0.371911 -1.27255,-0.691243 -1.59658,-0.386495 -1.5137,1.423631 0.0562,1.266743 -0.31113,3.213836 -0.8207,4.326874 -0.84885,1.853288 -0.75554,1.918221 1.10509,0.7711 1.11728,-0.688933 2.56447,-2.468676 3.21561,-3.954974 z m -16.05427,-1.249623 c 0,-0.657575 -1.39026,-1.791831 -3.08966,-2.520577 -3.46244,-1.484881 -12.22225,-1.063588 -16.058288,0.772287 -1.82285,0.872417 -0.93825,0.978999 5.568418,0.670952 6.25764,-0.296255 7.95106,-0.114104 8.86386,0.95334 1.40794,1.646591 4.71567,1.733572 4.71567,0.123998 z m 8.39335,-17.460425 c 7.88481,-4.059352 9.77487,-8.742222 4.45022,-11.025713 -2.89125,-1.2399116 -3.57681,-1.2612426 -6.46264,-0.201158 -3.68085,1.352216 -5.58393,3.621347 -7.41078,8.83628 -0.70193,2.003475 -1.66641,4.305364 -2.14336,5.115312 -0.82135,1.394248 -0.62438,1.406163 3.69868,0.223913 2.51135,-0.686793 6.05202,-2.013685 7.86788,-2.948634 z m -68.641218,8.044105 c -4.37243,-0.827264 -9.14929,-4.500855 -11.28427,-8.678042 l -1.37768,-2.695487 3.55824,2.493121 c 2.94163,2.061079 4.51063,2.4931 9.05422,2.4931 4.15896,0 6.06913,0.439678 7.85201,1.807387 1.91801,1.471362 1.95364,1.603436 0.19167,0.710362 -1.90353,-0.964822 -2.16434,-0.895737 -2.16434,0.573286 0,0.918676 -0.56563,1.89912 -1.25694,2.178777 -0.69134,0.279634 -0.93676,0.847536 -0.54541,1.26198 0.39135,0.414459 0.53957,0.720714 0.32937,0.680556 -0.2102,-0.04009 -2.17079,-0.411414 -4.35687,-0.825035 z m 5.82985,-0.217066 c 0,-0.168098 0.97395,-0.805567 2.16434,-1.4166 1.9616,-1.006889 2.00534,-0.978258 0.46696,0.305622 -1.61569,1.348399 -2.6313,1.777209 -2.6313,1.110978 z m 1.5085,-21.1041496 c -3.59179,-0.569241 -6.81766,-1.222917 -7.16858,-1.452615 -0.77787,-0.509102 6.66696,-1.193276 19.88298,-1.827218 8.86847,-0.425402 9.58837,-0.357045 6.94434,0.659369 -4.42097,1.699523 -1.61579,2.278453 11.31708,2.335601 7.691758,0.03391 10.209558,0.248928 7.710808,0.658244 -6.050108,0.991011 -31.635748,0.74409 -38.686628,-0.373381 z"
     id="path126"
     inkscape:connector-curvature="0" />
</svg>
